<?xml version="1.0" standalone="no"?>
<!DOCTYPE svg PUBLIC "-//W3C//DTD SVG 20010904//EN"
 "http://www.w3.org/TR/2001/REC-SVG-20010904/DTD/svg10.dtd">
<svg version="1.0" xmlns="http://www.w3.org/2000/svg"
 width="237.000000pt" height="237.000000pt" viewBox="0 0 237.000000 237.000000"
 preserveAspectRatio="xMidYMid meet">
<metadata>
Created by potrace 1.11, written by Peter Selinger 2001-2013
</metadata>
<g transform="translate(0.000000,237.000000) scale(0.100000,-0.100000)"
fill="#000000" stroke="none">
<path d="M1045 2114 c-11 -2 -45 -9 -75 -15 -30 -6 -93 -27 -139 -46 -267
-109 -460 -325 -548 -610 -25 -81 -27 -102 -27 -258 -1 -160 1 -175 28 -260
102 -322 324 -544 643 -642 80 -24 103 -27 258 -27 148 -1 180 2 248 22 333
96 582 354 668 692 9 36 14 111 14 220 0 153 -2 172 -28 255 -100 317 -331
547 -644 641 -74 22 -111 27 -233 30 -80 1 -154 1 -165 -2z m325 -487 c109
-51 152 -115 152 -227 0 -130 -60 -204 -241 -294 -96 -49 -141 -83 -141 -108
0 -5 83 -8 185 -8 l185 0 0 -100 0 -100 -355 0 -355 0 0 48 c0 66 26 167 57
224 37 68 98 115 240 187 132 65 157 90 157 149 0 99 -142 92 -163 -8 l-7 -35
-132 -3 -132 -3 0 29 c0 74 56 174 123 218 76 50 139 65 262 60 92 -3 119 -8
165 -29z"/>
</g>
</svg>
